<svg width="131" height="26" viewBox="0 0 131 26" fill="none" xmlns="http://www.w3.org/2000/svg">
<path fill-rule="evenodd" clip-rule="evenodd" d="M117.87 0.521012C117.467 2.55998 116.599 7.53817 116.599 12.5539C116.599 16.8144 117.226 21.4616 117.661 24.1772C121.408 24.3238 124.992 24.486 128.392 24.6625C128.058 23.4022 128.318 22.3215 129.196 20.7704L122.625 21.0004L121.349 14.8805L125.368 15.3407C124.411 13.3705 124.376 12.1958 125.368 9.95703H121.349L122.625 4.75743L128.603 4.9875C127.789 2.93054 127.878 1.76782 128.722 0C125.299 0.18905 121.674 0.363235 117.87 0.521012Z" fill="#FF4848"/>
<path fill-rule="evenodd" clip-rule="evenodd" d="M98.7017 1.13799C98.4488 3.59542 98.0068 8.48121 98.0068 12.6083C98.0068 16.2085 98.6652 20.7218 99.1619 23.6142C100.619 23.6471 102.061 23.6821 103.486 23.7192L102.816 18.0141V9.1986L105.306 15.8706L108.329 23.8553C110.721 23.9275 113.061 24.0057 115.344 24.0896C113.859 15.3571 113.943 9.68008 115.587 0.613281C113.61 0.690484 111.588 0.76333 109.523 0.831614C109.146 1.85106 108.84 3.65032 109.102 6.78286C109.633 13.1435 109.932 17.021 109.932 17.021L106.95 8.30133L105.404 0.960147C103.211 1.02454 100.976 1.08389 98.7017 1.13799Z" fill="#FF4848"/>
<path fill-rule="evenodd" clip-rule="evenodd" d="M91.3203 1.29178C89.9345 9.74995 89.8823 15.2945 91.1155 23.4572C93.0761 23.4895 95.0132 23.5257 96.925 23.5655C96.5055 20.7036 95.9558 16.3303 95.9546 13.0626C95.9533 9.21202 96.7127 3.83096 97.1284 1.17383C95.2184 1.21688 93.2817 1.25624 91.3203 1.29178Z" fill="#FF4848"/>
<path fill-rule="evenodd" clip-rule="evenodd" d="M79.1965 1.45975C78.7169 1.88092 78.2962 2.35898 78.0368 2.89392C77.4381 4.1363 77.0089 5.58574 76.7491 7.24225C76.7195 7.42953 76.6905 7.60525 76.6625 7.77477C76.4456 9.09079 76.2902 10.0331 76.3594 13.1091C76.4376 16.5812 76.4893 17.1199 76.7491 18.7458C77.0089 20.3563 77.4325 21.8057 78.0198 23.0941C78.0528 23.1643 78.0885 23.2335 78.1267 23.3018C82.2014 23.3324 86.2005 23.379 90.1086 23.4407C90.0022 22.8928 89.6913 22.4282 89.2518 21.7716L89.2518 21.7716C89.1431 21.6092 89.0266 21.4351 88.9034 21.2451C88.511 21.63 88.3751 21.6727 87.7975 21.8545L87.7331 21.8747C87.1006 22.0588 86.4963 22.1508 85.9203 22.1508C85.6605 22.1508 85.4176 22.1048 85.1917 22.0128C85.1275 21.9823 85.0324 21.958 84.9181 21.9288C84.6303 21.8553 84.2216 21.7509 83.8839 21.4389C83.7987 21.3278 83.6708 21.1936 83.5281 21.0438L83.5281 21.0438C83.1978 20.6973 82.7884 20.2678 82.6464 19.8501C82.4431 19.2366 82.268 18.3623 82.1212 17.2273C81.9856 16.0923 81.9179 14.7656 81.9179 13.2471C81.9179 10.701 82.0252 8.75305 82.2398 7.4033C82.4076 6.33592 83.2787 5.54518 83.8451 5.03107C84.0031 4.88768 84.1373 4.76581 84.226 4.66546C84.6326 4.18998 85.2143 3.95224 85.9711 3.95224C86.1066 3.95224 86.2761 3.99058 86.4794 4.06727L86.3257 6.80511H87.8795C87.8795 6.80511 88.7119 5.5156 89.2113 3.95224C89.3605 3.48535 89.4998 3.06682 89.6196 2.70655L89.6197 2.70645L89.6197 2.70644C89.8631 1.97503 90.0266 1.48376 90.0306 1.31543C86.4932 1.37617 82.8779 1.42453 79.1965 1.45975Z" fill="#FF4848"/>
<path fill-rule="evenodd" clip-rule="evenodd" d="M61.3896 1.52499C61.8103 4.37968 62.5193 9.71256 62.5193 13.2242C62.5193 16.2156 62.0048 20.3964 61.5924 23.2673C63.2596 23.2619 64.9377 23.2592 66.6256 23.2592L66.7111 23.2592V17.5495C66.8015 17.5495 66.9427 17.5572 67.1347 17.5726C67.338 17.5879 67.53 17.6032 67.7108 17.6186C67.8915 17.6339 68.1005 17.6492 68.3376 17.6646H69.0323H69.117C69.3316 18.6002 69.4954 19.7659 69.6083 21.1617C69.6766 21.9197 69.7363 22.62 69.7875 23.2624C71.3448 23.2655 72.8929 23.271 74.4312 23.2788C74.4166 23.1251 74.3979 22.9675 74.3672 22.8038C74.2309 22.0066 74.0867 21.4201 73.9041 20.6777L73.861 20.5023C73.6577 19.6587 73.3406 18.4952 72.5636 17.9064C72.3143 17.7175 72.0149 17.4687 71.7064 17.2124C71.0536 16.6701 70.3601 16.0941 70.015 15.9795C70.2207 15.8012 70.4316 15.6349 70.6416 15.4694C71.3885 14.8806 72.1228 14.3018 72.5636 13.2242C73.1397 11.8438 73.396 10.8085 73.861 8.3792C73.9334 8.00075 74.0036 7.64356 74.07 7.30569C74.6563 4.32264 74.9466 2.8455 73.861 1.53663C73.8512 1.5247 73.8413 1.51281 73.8314 1.50098C70.8011 1.5191 67.7312 1.52836 64.6278 1.52836C63.5442 1.52836 62.4648 1.52723 61.3896 1.52499ZM66.7111 13.2702H67.2533C67.5357 13.2702 67.7729 13.2549 67.9649 13.2242C68.1569 13.1935 68.3659 13.1399 68.5918 13.0632C68.829 12.9711 69.021 12.8331 69.1678 12.649C69.326 12.465 69.4728 12.2272 69.6083 11.9358C69.7439 11.6444 69.8455 11.2686 69.9133 10.8085C69.9811 10.3483 70.015 9.81151 70.015 9.19799V7.38043C70.015 6.04602 69.7552 5.11807 69.2356 4.59657C68.7273 4.05974 67.9931 3.79132 67.0331 3.79132H66.7111V13.2702Z" fill="#FF4848"/>
<path fill-rule="evenodd" clip-rule="evenodd" d="M48 1.43799C49.7616 9.78445 49.8106 15.3018 48.2469 23.3699C52.1483 23.3224 56.1307 23.2897 60.1795 23.2729C60.1341 22.4997 59.936 21.7232 59.5981 20.7708L53.1938 21.0009V14.881L57.7683 15.3411C58.5367 13.4214 58.6447 12.2682 57.7683 9.95748H53.1938V4.75788L59.0051 4.98795C59.6594 3.60341 59.9056 2.61724 59.8046 1.52068C55.8027 1.50823 51.8632 1.48037 48 1.43799Z" fill="#FF4848"/>
<path fill-rule="evenodd" clip-rule="evenodd" d="M32.0254 1.17188C33.6925 9.76692 33.7614 15.3459 32.2579 23.657C34.0757 23.6134 35.9188 23.5731 37.7854 23.5363L37.3093 20.8169C37.3206 20.8169 37.3884 20.8246 37.5126 20.8399C37.6369 20.8553 37.7216 20.8629 37.7668 20.8629C37.812 20.8629 37.8967 20.8706 38.0209 20.8859C38.1565 20.8859 38.2581 20.8936 38.3259 20.9089C38.405 20.9089 38.5066 20.9166 38.6309 20.9319C38.7664 20.9319 38.8794 20.9396 38.9697 20.9549H39.2916H39.6474C40.5284 20.9549 41.8082 20.6865 42.5989 20.1497C43.3895 19.6129 44.151 18.846 44.7722 17.849C45.3935 16.852 45.8848 15.579 46.2462 14.0298C46.619 12.4653 46.8053 10.7321 46.8053 8.83023C46.8053 5.67059 46.1296 3.30086 45.0001 1.72104C44.9205 1.60968 44.8363 1.50224 44.7478 1.39873C40.396 1.34119 36.1484 1.26513 32.0254 1.17188ZM41.5256 7.81791C41.5256 6.71914 40.9499 5.82161 40.5032 5.12531L40.4594 5.05707C40.0076 4.35152 38.9697 3.99874 38.1226 3.99874H37.3093V15.9624H37.9362C38.8285 15.9624 39.9615 15.556 40.4472 14.743C40.9442 13.9301 41.5256 12.7568 41.5256 11.223V7.81791Z" fill="#FF4848"/>
<path fill-rule="evenodd" clip-rule="evenodd" d="M14.5459 0.646484C16.8233 7.20604 17.6993 11.2028 14.941 18.0556C14.6063 19.0572 14.4595 20.0496 14.6063 20.9085C14.6425 21.12 14.6717 21.3292 14.7006 21.536C14.789 22.1692 14.8744 22.7806 15.1468 23.3703C15.2857 23.6561 15.438 23.925 15.6037 24.1767C19.6674 24.0178 23.9223 23.8773 28.3407 23.757C28.4016 23.639 28.4596 23.5177 28.5146 23.3933C28.5919 23.2204 28.6746 23.0465 28.7578 22.8714C29.0513 22.2541 29.3513 21.6228 29.4481 20.9775C29.503 20.6425 29.6375 20.2911 29.7783 19.9234C29.9856 19.3822 30.2064 18.8056 30.2064 18.1937C31.7345 11.8563 30.9934 7.91248 29.8812 1.99418C29.8272 1.70665 29.7723 1.41446 29.7167 1.11711C27.9077 1.07288 26.124 1.0253 24.3674 0.974502C24.4361 1.30308 24.5041 1.62495 24.5708 1.94093C25.7202 7.38602 26.4996 11.0783 24.8525 17.0893C24.7006 18.0402 24.6174 18.5754 24.4611 19.5971C24.3817 20.1162 24.1046 20.5157 23.8819 20.8368C23.8 20.955 23.7254 21.0626 23.6707 21.1616C23.4891 21.4766 23.1171 21.7121 22.8707 21.8681L22.8704 21.8682C22.841 21.8869 22.8133 21.9044 22.7879 21.9208C22.5507 22.0588 22.274 22.1279 21.9578 22.1279C21.3817 22.1279 21.1632 21.7674 20.8582 21.0465C20.5645 20.3103 20.6774 19.0304 20.9726 17.0203C22.5515 10.8103 21.7706 7.08486 20.5621 1.31907C20.53 1.16583 20.4976 1.01114 20.4649 0.854927C18.4517 0.789704 16.4778 0.72016 14.5459 0.646484Z" fill="#FF4848"/>
<path fill-rule="evenodd" clip-rule="evenodd" d="M1.7798 0.0673828C-0.724918 1.43174 0.222618 4.38686 1.8114 7.88621C2.27977 8.65364 2.50877 9.00909 2.72201 9.34008C2.90205 9.61954 3.07085 9.88155 3.363 10.3594C3.65311 10.8338 3.95961 11.2281 4.22963 11.5754C4.49267 11.9138 4.72108 12.2076 4.866 12.4876C5.15967 13.0398 5.53806 13.5766 6.00116 14.0981C6.24908 14.3626 6.35718 14.5458 6.44419 14.6933C6.52367 14.828 6.58556 14.9328 6.72036 15.0427C6.85246 15.1897 7.00817 15.4037 7.17245 15.6296L7.17246 15.6296L7.17246 15.6296C7.45677 16.0205 7.76675 16.4466 8.02446 16.6216C8.32526 17.004 8.55003 17.3508 8.75473 17.6666C8.96544 17.9917 9.15488 18.2839 9.38405 18.5485C9.91124 20.2345 8.38517 20.8276 7.88573 20.9838C7.50537 21.1028 7.12232 21.1682 6.71822 21.2373C6.5917 21.2589 6.46312 21.2808 6.33191 21.3049C6.25279 21.3194 6.17492 21.3344 6.09689 21.3494L6.09664 21.3495C5.63204 21.4389 5.16171 21.5294 4.38816 21.5294C3.48455 21.5294 2.64306 21.2226 1.8637 20.6091C1.08433 19.9803 0.4631 19.244 0 18.4004C0.0989758 18.817 0.198159 19.2148 0.292851 19.5947C0.889337 21.9875 1.30757 23.6653 0.372734 24.784C0.495879 24.96 0.373567 24.875 0.306698 24.8285C0.257217 24.7941 0.238094 24.7808 0.371246 24.91C3.71506 24.7142 7.26677 24.5331 11.0024 24.3681C12.564 22.8056 13.7451 20.5817 13.3519 17.8253C12.8524 15.5779 12.6859 14.8821 11.2161 12.9248C9.93899 11.6439 8.88461 10.6726 7.59032 9.54272C7.43219 9.40468 7.19499 9.22829 6.87873 9.01356C6.57376 8.78349 6.33092 8.59176 6.1502 8.43838C5.98077 8.285 5.7944 8.10094 5.59109 7.88621C5.38777 7.67148 5.24094 7.43374 5.15058 7.17299C5.06022 6.91225 5.01503 6.62082 5.01503 6.29872C5.01503 5.07168 5.73792 4.45816 7.1837 4.45816C7.78234 4.45816 8.40922 4.63455 9.06434 4.98732C9.73075 5.32476 10.2842 5.84625 10.7247 6.5518C11.6947 5.17994 12.2038 4.39107 11.5719 2.11144C11.538 2.03475 11.4815 1.93505 11.4024 1.81234C11.3234 1.6743 11.1313 1.44423 10.8264 1.12213C10.6162 0.880647 10.3887 0.662729 10.1438 0.468376C7.24504 0.344109 4.45341 0.210209 1.7798 0.0673828Z" fill="#FF4848"/>
<path fill-rule="evenodd" clip-rule="evenodd" d="M119.313 1.10989C118.91 3.14854 118.041 8.12714 118.041 13.1433C118.041 17.4038 118.668 22.051 119.104 24.7665C122.85 24.9131 126.434 25.0754 129.834 25.2518C129.501 23.9916 129.761 22.9108 130.638 21.3597L124.067 21.5898L122.791 15.4699L126.81 15.9301C125.853 13.9599 125.819 12.7852 126.81 10.5464H122.791L124.067 5.34682L130.045 5.57689C129.231 3.51972 129.321 2.35698 130.164 0.588867C126.741 0.77792 123.116 0.952108 119.313 1.10989Z" fill="#5B21FF"/>
<path fill-rule="evenodd" clip-rule="evenodd" d="M100.145 1.72685C99.8921 4.18445 99.4502 9.06986 99.4502 13.1966C99.4502 16.7971 100.109 21.3107 100.605 24.2031C102.063 24.236 103.504 24.271 104.93 24.3081L104.259 18.6025V9.78698L106.75 16.459L109.773 24.4442C112.165 24.5164 114.505 24.5946 116.788 24.6785C115.303 15.9459 115.386 10.2688 117.031 1.20215C115.053 1.27935 113.031 1.3522 110.967 1.42048C110.589 2.44002 110.284 4.2392 110.545 7.37124C111.076 13.7319 111.375 17.6094 111.375 17.6094L108.393 8.8897L106.847 1.54901C104.655 1.6134 102.42 1.67275 100.145 1.72685Z" fill="#5B21FF"/>
<path fill-rule="evenodd" clip-rule="evenodd" d="M92.7617 1.88064C91.3759 10.3388 91.3237 15.8834 92.5569 24.046C94.5175 24.0784 96.4546 24.1145 98.3664 24.1544C97.9469 21.2924 97.3972 16.9191 97.396 13.6514C97.3947 9.80088 98.1541 4.41983 98.5698 1.7627C96.6598 1.80574 94.7231 1.8451 92.7617 1.88064Z" fill="#5B21FF"/>
<path fill-rule="evenodd" clip-rule="evenodd" d="M80.6397 2.04862C80.1598 2.46996 79.7387 2.94824 79.4791 3.48346C78.8805 4.72584 78.4513 6.17528 78.1915 7.8318C78.1618 8.01907 78.1329 8.19479 78.1049 8.36431C77.888 9.68033 77.7326 10.6227 77.8018 13.6986C77.88 17.1707 77.9317 17.7095 78.1915 19.3353C78.4513 20.9458 78.8749 22.3953 79.4622 23.6837C79.4951 23.7536 79.5307 23.8227 79.5688 23.8909C83.6435 23.9214 87.6427 23.9681 91.5509 24.0297C91.4444 23.4821 91.1335 23.0175 90.6942 22.3612L90.6942 22.3611C90.5855 22.1987 90.469 22.0246 90.3458 21.8346C89.9533 22.2195 89.8175 22.2622 89.2399 22.444L89.1755 22.4643C88.543 22.6483 87.9387 22.7404 87.3626 22.7404C87.1029 22.7404 86.86 22.6944 86.6341 22.6023C86.5699 22.5718 86.4747 22.5475 86.3605 22.5183C86.0727 22.4448 85.664 22.3405 85.3263 22.0284C85.2411 21.9173 85.1132 21.7831 84.9705 21.6334L84.9704 21.6334C84.6402 21.2869 84.2307 20.8574 84.0888 20.4397C83.8855 19.8261 83.7104 18.9519 83.5635 17.8169C83.428 16.6818 83.3602 15.3551 83.3602 13.8366C83.3602 11.2905 83.4675 9.34259 83.6822 7.99284C83.85 6.92547 84.7211 6.13472 85.2875 5.62062C85.4454 5.47723 85.5797 5.35535 85.6684 5.255C86.075 4.77952 86.6567 4.54178 87.4135 4.54178C87.549 4.54178 87.7184 4.58013 87.9218 4.65682L87.768 7.39466H89.3219C89.3219 7.39466 90.1543 6.10514 90.6537 4.54178C90.8029 4.07489 90.9421 3.65637 91.062 3.2961L91.0621 3.29599L91.0621 3.29598C91.3058 2.56359 91.4694 2.07198 91.473 1.9043C87.9358 1.96504 84.3208 2.0134 80.6397 2.04862Z" fill="#5B21FF"/>
<path fill-rule="evenodd" clip-rule="evenodd" d="M62.832 2.11337C63.2527 4.96806 63.9617 10.3009 63.9617 13.8126C63.9617 16.804 63.4472 20.9848 63.0347 23.8557C64.7019 23.8503 66.38 23.8475 68.068 23.8475L68.1535 23.8475V18.1379C68.2439 18.1379 68.3851 18.1456 68.5771 18.1609C68.7804 18.1763 68.9724 18.1916 69.1531 18.207C69.3339 18.2223 69.5428 18.2376 69.78 18.253H70.4747H70.5594C70.774 19.1886 70.9378 20.3543 71.0507 21.75C71.119 22.5081 71.1787 23.2083 71.2299 23.8508C72.7871 23.8539 74.3353 23.8594 75.8736 23.8672C75.859 23.7135 75.8403 23.5559 75.8096 23.3922C75.6733 22.595 75.529 22.0085 75.3465 21.2661L75.3033 21.0907C75.1 20.2471 74.7829 19.0835 74.006 18.4948C73.7567 18.3058 73.4573 18.0571 73.1488 17.8008C72.4959 17.2585 71.8025 16.6825 71.4574 16.5679C71.6631 16.3896 71.874 16.2233 72.084 16.0578C72.8309 15.469 73.5652 14.8901 74.006 13.8126C74.5821 12.4322 74.8384 11.3969 75.3033 8.96758C75.3758 8.58913 75.446 8.23194 75.5124 7.89407C76.0987 4.91102 76.389 3.43388 75.3033 2.12501C75.2935 2.11308 75.2837 2.10119 75.2738 2.08936C72.2435 2.10748 69.1735 2.11674 66.07 2.11674C64.9865 2.11674 63.9071 2.11561 62.832 2.11337ZM68.1535 13.8586H68.6957C68.9781 13.8586 69.2153 13.8433 69.4073 13.8126C69.5993 13.7819 69.8083 13.7282 70.0342 13.6516C70.2714 13.5595 70.4634 13.4215 70.6102 13.2374C70.7684 13.0534 70.9152 12.8156 71.0507 12.5242C71.1863 12.2328 71.2879 11.857 71.3557 11.3969C71.4235 10.9367 71.4574 10.3999 71.4574 9.78637V7.96881C71.4574 6.6344 71.1976 5.70645 70.678 5.18495C70.1697 4.64812 69.4355 4.3797 68.4754 4.3797H68.1535V13.8586Z" fill="#5B21FF"/>
<path fill-rule="evenodd" clip-rule="evenodd" d="M49.4434 2.02734C51.2048 10.3734 51.2538 15.8906 49.6902 23.9583C53.5916 23.9108 57.574 23.8781 61.6227 23.8612C61.5773 23.0883 61.3792 22.3119 61.0414 21.3597L54.637 21.5897V15.4699L59.2116 15.93C59.9799 14.0103 60.0879 12.8571 59.2116 10.5464H54.637V5.34676L60.4484 5.57683C61.1026 4.19249 61.3487 3.2064 61.2479 2.11004C57.246 2.09759 53.3065 2.06972 49.4434 2.02734Z" fill="#5B21FF"/>
<path fill-rule="evenodd" clip-rule="evenodd" d="M33.4688 1.76074C35.1358 10.3558 35.2048 15.9347 33.7012 24.2459C35.5191 24.2022 37.3622 24.1619 39.2288 24.1251L38.7527 21.4058C38.764 21.4058 38.8318 21.4134 38.956 21.4288C39.0803 21.4441 39.165 21.4518 39.2101 21.4518C39.2553 21.4518 39.34 21.4595 39.4643 21.4748C39.5998 21.4748 39.7015 21.4825 39.7693 21.4978C39.8483 21.4978 39.95 21.5055 40.0742 21.5208C40.2098 21.5208 40.3227 21.5285 40.4131 21.5438H40.735H41.0908C41.9718 21.5438 43.2516 21.2754 44.0422 20.7386C44.8329 20.2017 45.5943 19.4348 46.2156 18.4379C46.8368 17.4409 47.3281 16.1678 47.6896 14.6187C48.0623 13.0542 48.2487 11.321 48.2487 9.41909C48.2487 6.25946 47.573 3.88973 46.4434 2.30991C46.3638 2.19855 46.2796 2.09111 46.1911 1.98759C41.8394 1.93005 37.5917 1.85399 33.4688 1.76074ZM42.969 8.40678C42.969 7.30801 42.3932 6.41048 41.9466 5.71418L41.9028 5.64593C41.451 4.94038 40.4131 4.58761 39.5659 4.58761H38.7527V16.5513H39.3796C40.2719 16.5513 41.4048 16.1448 41.8905 15.3319C42.3875 14.519 42.969 13.3456 42.969 11.8118V8.40678Z" fill="#5B21FF"/>
<path fill-rule="evenodd" clip-rule="evenodd" d="M15.9883 1.23535C18.2657 7.79492 19.1417 11.7917 16.3834 18.6445C16.0487 19.6461 15.9019 20.6385 16.0487 21.4974C16.0849 21.7089 16.1141 21.9181 16.143 22.1249C16.2314 22.7581 16.3167 23.3695 16.5892 23.9592C16.7281 24.245 16.8804 24.5139 17.0461 24.7657C21.1098 24.6067 25.3646 24.4662 29.783 24.3459C29.844 24.2279 29.902 24.1066 29.957 23.9822C30.0343 23.8093 30.117 23.6354 30.2002 23.4603C30.4937 22.843 30.7937 22.2117 30.8905 21.5664C30.9454 21.2314 31.0799 20.88 31.2207 20.5123C31.428 19.9711 31.6488 19.3945 31.6488 18.7826C33.1769 12.4452 32.4358 8.50138 31.3236 2.58308C31.2696 2.29555 31.2147 2.00335 31.1591 1.70599C29.3501 1.66175 27.5663 1.61418 25.8097 1.56338C25.8785 1.89196 25.9465 2.21385 26.0132 2.52983C27.1626 7.97492 27.942 11.6672 26.2949 17.6782C26.143 18.6291 26.0598 19.1643 25.9035 20.186C25.8241 20.7051 25.547 21.1046 25.3243 21.4257C25.2424 21.5439 25.1678 21.6515 25.1131 21.7505C24.9315 22.0655 24.5595 22.301 24.3131 22.457L24.3128 22.4571C24.2833 22.4758 24.2557 22.4933 24.2303 22.5097C23.9931 22.6477 23.7164 22.7168 23.4001 22.7168C22.8241 22.7168 22.6056 22.3563 22.3006 21.6354C22.0069 20.8992 22.1197 19.6193 22.415 17.6092C23.9939 11.3992 23.213 7.67376 22.0045 1.90797C21.9724 1.75472 21.94 1.60002 21.9073 1.4438C19.8941 1.37857 17.9201 1.30903 15.9883 1.23535Z" fill="#5B21FF"/>
<path fill-rule="evenodd" clip-rule="evenodd" d="M3.222 0.65625C0.717512 2.02065 1.66504 4.97572 3.25378 8.47497C3.72216 9.2424 3.95116 9.59786 4.1644 9.92885C4.34443 10.2083 4.51323 10.4703 4.80538 10.9481C5.0955 11.4226 5.402 11.8168 5.67201 12.1642C5.93505 12.5025 6.16347 12.7964 6.30838 13.0764C6.60205 13.6286 6.98044 14.1654 7.44354 14.6869C7.69147 14.9514 7.79956 15.1346 7.88657 15.282C7.96605 15.4167 8.02794 15.5216 8.16274 15.6314C8.29484 15.7784 8.45055 15.9925 8.61483 16.2184L8.61484 16.2184C8.89915 16.6092 9.20913 17.0354 9.46684 17.2104C9.76764 17.5928 9.99242 17.9396 10.1971 18.2554C10.4078 18.5805 10.5973 18.8727 10.8264 19.1372C11.3536 20.8232 9.82755 21.4163 9.32811 21.5725C8.94776 21.6915 8.5647 21.757 8.1606 21.826C8.03408 21.8476 7.9055 21.8696 7.77429 21.8937C7.69517 21.9082 7.6173 21.9232 7.53927 21.9382L7.53902 21.9383C7.07442 22.0277 6.60409 22.1182 5.83054 22.1182C4.92693 22.1182 4.08544 21.8114 3.30608 21.1979C2.52671 20.569 1.90548 19.8328 1.44238 18.9892C1.54136 19.4057 1.64054 19.8036 1.73523 20.1835C2.33172 22.5763 2.74995 24.2541 1.81512 25.3727C1.93826 25.5487 1.81595 25.4637 1.74908 25.4173C1.69966 25.3829 1.68052 25.3696 1.81316 25.4983C5.15726 25.3025 8.7093 25.1213 12.4452 24.9563C14.0067 23.3939 15.1874 21.1702 14.7942 18.414C14.2948 16.1667 14.1283 15.4709 12.6584 13.5135C11.3814 12.2327 10.327 11.2613 9.03271 10.1315C8.87458 9.99344 8.63738 9.81705 8.32111 9.60232C8.01615 9.37225 7.7733 9.18052 7.59258 9.02714C7.42315 8.87376 7.23678 8.68971 7.03347 8.47497C6.83016 8.26024 6.68332 8.0225 6.59296 7.76175C6.5026 7.50101 6.45742 7.20959 6.45742 6.88749C6.45742 5.66044 7.18031 5.04692 8.62608 5.04692C9.22472 5.04692 9.8516 5.22331 10.5067 5.57608C11.1731 5.91352 11.7266 6.43501 12.1671 7.14056C13.1371 5.7687 13.6462 4.97983 13.0142 2.7002C12.9804 2.62351 12.9239 2.52381 12.8448 2.40111C12.7657 2.26307 12.5737 2.033 12.2688 1.7109C12.0586 1.46946 11.8312 1.25158 11.5863 1.05725C8.68745 0.932982 5.89571 0.79908 3.222 0.65625Z" fill="#5B21FF"/>
<path fill-rule="evenodd" clip-rule="evenodd" d="M118.592 0.842776C118.189 2.88183 117.32 7.85991 117.32 12.8756C117.32 17.1358 117.947 21.7826 118.383 24.4983C122.129 24.6449 125.713 24.8071 129.113 24.9836C128.78 23.7236 129.04 22.6429 129.917 21.092L123.347 21.322L122.07 15.2022L126.09 15.6623C125.132 13.6921 125.098 12.5174 126.09 10.2787H122.07L123.347 5.07905L129.324 5.30912C128.51 3.25222 128.6 2.08951 129.443 0.321777C126.02 0.510823 122.395 0.685003 118.592 0.842776Z" fill="white"/>
<path fill-rule="evenodd" clip-rule="evenodd" d="M99.4233 1.45927C99.1704 3.91685 98.7285 8.8023 98.7285 12.9291C98.7285 16.5294 99.3869 21.0427 99.8836 23.935C101.341 23.9679 102.783 24.003 104.208 24.0401L103.538 18.335V9.51943L106.028 16.1915L109.051 24.1761C111.443 24.2483 113.783 24.3265 116.066 24.4105C114.581 15.6781 114.665 10.0011 116.309 0.93457C114.332 1.01177 112.309 1.08462 110.245 1.1529C109.867 2.17243 109.562 3.97162 109.823 7.10369C110.354 13.4643 110.654 17.3418 110.654 17.3418L107.672 8.62216L106.126 1.28143C103.933 1.34582 101.698 1.40517 99.4233 1.45927Z" fill="white"/>
<path fill-rule="evenodd" clip-rule="evenodd" d="M92.0409 1.61307C90.6552 10.0709 90.603 15.6154 91.8362 23.7779C93.7968 23.8103 95.7339 23.8464 97.6457 23.8862C97.2262 21.0243 96.6765 16.651 96.6753 13.3833C96.674 9.53301 97.4332 4.15245 97.849 1.49512C95.939 1.53817 94.0023 1.57753 92.0409 1.61307Z" fill="white"/>
<path fill-rule="evenodd" clip-rule="evenodd" d="M79.918 1.78055C79.4381 2.20189 79.017 2.68016 78.7575 3.21538C78.1588 4.45776 77.7296 5.90721 77.4698 7.56372C77.4402 7.75099 77.4112 7.92671 77.3832 8.09623C77.1663 9.41225 77.0109 10.3546 77.0801 13.4305C77.1583 16.9027 77.21 17.4414 77.4698 19.0672C77.7296 20.6777 78.1532 22.1272 78.7405 23.4156C78.7734 23.4856 78.809 23.5546 78.8471 23.6228C82.9218 23.6534 86.921 23.7 90.8292 23.7617C90.7227 23.214 90.4118 22.7494 89.9726 22.0931L89.9724 22.0929C89.8638 21.9305 89.7473 21.7565 89.6241 21.5666C89.2317 21.9514 89.0958 21.9942 88.5182 22.1759L88.4538 22.1962C87.8213 22.3803 87.217 22.4723 86.641 22.4723C86.3812 22.4723 86.1383 22.4263 85.9124 22.3343C85.8483 22.3038 85.7531 22.2794 85.6389 22.2503L85.6388 22.2503C85.351 22.1768 84.9423 22.0724 84.6046 21.7603C84.5194 21.6493 84.3915 21.515 84.2488 21.3653L84.2488 21.3653C83.9185 21.0188 83.5091 20.5893 83.3671 20.1716C83.1638 19.5581 82.9887 18.6838 82.8419 17.5488C82.7063 16.4138 82.6386 15.087 82.6386 13.5686C82.6386 11.0224 82.7459 9.07451 82.9605 7.72476C83.1283 6.65739 83.9994 5.86664 84.5658 5.35254C84.7238 5.20915 84.858 5.08727 84.9467 4.98692C85.3533 4.51144 85.935 4.2737 86.6918 4.2737C86.8273 4.2737 86.9968 4.31205 87.2001 4.38874L87.0464 7.12658H88.6002C88.6002 7.12658 89.4326 5.83706 89.932 4.2737C90.0812 3.80681 90.2205 3.38829 90.3403 3.02802L90.3404 3.02791L90.3404 3.02791C90.5841 2.29553 90.7477 1.80393 90.7513 1.63623C87.2141 1.69697 83.5991 1.74533 79.918 1.78055Z" fill="white"/>
<path fill-rule="evenodd" clip-rule="evenodd" d="M62.1113 1.84579C62.532 4.70048 63.241 10.0334 63.241 13.545C63.241 16.5364 62.7265 20.7172 62.314 23.5881C63.9812 23.5827 65.6593 23.58 67.3473 23.58L67.4328 23.58V17.8703C67.5232 17.8703 67.6644 17.878 67.8564 17.8934C68.0597 17.9087 68.2517 17.924 68.4324 17.9394C68.6132 17.9547 68.8221 17.97 69.0593 17.9854H69.754H69.8387C70.0533 18.921 70.2171 20.0867 70.33 21.4825C70.3983 22.2405 70.458 22.9408 70.5092 23.5832C72.0664 23.5863 73.6146 23.5918 75.1529 23.5996C75.1383 23.4459 75.1195 23.2883 75.0889 23.1246C74.9526 22.3274 74.8083 21.7409 74.6258 20.9985L74.5826 20.8231C74.3793 19.9795 74.0622 18.816 73.2853 18.2272C73.036 18.0383 72.7366 17.7895 72.4281 17.5332C71.7752 16.9909 71.0818 16.4149 70.7367 16.3003C70.9424 16.122 71.1533 15.9557 71.3633 15.7902C72.1102 15.2014 72.8445 14.6226 73.2853 13.545C73.8614 12.1646 74.1177 11.1293 74.5826 8.7C74.6551 8.32155 74.7253 7.96436 74.7917 7.62649C75.3779 4.64344 75.6683 3.1663 74.5826 1.85743C74.5728 1.8455 74.563 1.83361 74.5531 1.82178C71.5229 1.8399 68.4531 1.84916 65.3499 1.84916C64.2662 1.84916 63.1866 1.84803 62.1113 1.84579ZM67.4328 13.591H67.975C68.2574 13.591 68.4946 13.5757 68.6866 13.545C68.8786 13.5143 69.0876 13.4607 69.3135 13.384C69.5507 13.2919 69.7427 13.1539 69.8895 12.9698C70.0477 12.7858 70.1945 12.548 70.33 12.2566C70.4656 11.9652 70.5672 11.5894 70.635 11.1293C70.7028 10.6691 70.7367 10.1323 70.7367 9.51878V7.70123C70.7367 6.36682 70.4769 5.43886 69.9573 4.91737C69.449 4.38054 68.7148 4.11212 67.7547 4.11212H67.4328V13.591Z" fill="white"/>
<path fill-rule="evenodd" clip-rule="evenodd" d="M48.7217 1.75928C50.4831 10.1053 50.5321 15.6225 48.9686 23.6902C52.87 23.6427 56.8523 23.6101 60.901 23.5932C60.8556 22.8202 60.6575 22.0439 60.3197 21.0916L53.9154 21.3217V15.2018L58.4899 15.6619C59.2582 13.7422 59.3663 12.5891 58.4899 10.2783H53.9154V5.0787L59.7267 5.30877C60.3809 3.92443 60.6271 2.93834 60.5262 1.84198C56.5243 1.82952 52.5849 1.80166 48.7217 1.75928Z" fill="white"/>
<path fill-rule="evenodd" clip-rule="evenodd" d="M32.748 1.49268C34.4151 10.0877 34.4841 15.6667 32.9805 23.9778C34.7984 23.9342 36.6415 23.8939 38.5081 23.8571L38.032 21.1377C38.0433 21.1377 38.1111 21.1454 38.2353 21.1607C38.3595 21.1761 38.4443 21.1837 38.4894 21.1837C38.5346 21.1837 38.6193 21.1914 38.7436 21.2067C38.8791 21.2067 38.9808 21.2144 39.0486 21.2297C39.1276 21.2297 39.2293 21.2374 39.3535 21.2528C39.4891 21.2528 39.602 21.2604 39.6924 21.2758H40.0143H40.3701C41.2511 21.2758 42.5309 21.0073 43.3215 20.4705C44.1122 19.9337 44.8736 19.1668 45.4949 18.1698C46.1161 17.1728 46.6074 15.8998 46.9689 14.3506C47.3416 12.7862 47.528 11.053 47.528 9.15104C47.528 5.9914 46.8523 3.62167 45.7227 2.04185C45.6431 1.93049 45.5589 1.82305 45.4704 1.71953C41.1187 1.66199 36.871 1.58593 32.748 1.49268ZM42.2483 8.13872C42.2483 7.03995 41.6725 6.14242 41.2259 5.44612L41.1821 5.37788C40.7303 4.67233 39.6924 4.31955 38.8452 4.31955H38.032V16.2832H38.6589C39.5512 16.2832 40.6841 15.8768 41.1698 15.0639C41.6668 14.2509 42.2483 13.0776 42.2483 11.5438V8.13872Z" fill="white"/>
<path fill-rule="evenodd" clip-rule="evenodd" d="M15.2676 0.96875C17.5449 7.528 18.4207 11.5247 15.6625 18.3774C15.3279 19.3789 15.181 20.3713 15.3279 21.2303C15.364 21.4418 15.3932 21.6509 15.4221 21.8578C15.5105 22.491 15.5959 23.1024 15.8683 23.692C16.0072 23.9777 16.1594 24.2464 16.3249 24.4981C20.3888 24.3391 24.6438 24.1986 29.0624 24.0782C29.1233 23.9604 29.1812 23.8393 29.2361 23.715C29.3134 23.5422 29.3961 23.3682 29.4793 23.1932C29.7728 22.5758 30.0728 21.9445 30.1696 21.2993C30.2245 20.9642 30.359 20.6128 30.4998 20.2451C30.7071 19.7039 30.9279 19.1273 30.9279 18.5154C32.456 12.1781 31.7149 8.23423 30.6027 2.31594C30.5487 2.02857 30.4938 1.73655 30.4383 1.43937C28.6293 1.39513 26.8456 1.34756 25.089 1.29676C25.1577 1.62516 25.2256 1.94687 25.2923 2.26269C26.4417 7.70778 27.2211 11.4001 25.574 17.4111C25.4221 18.362 25.3389 18.8972 25.1826 19.9189C25.1032 20.438 24.8262 20.8374 24.6034 21.1586L24.6034 21.1586C24.5215 21.2768 24.4469 21.3843 24.3922 21.4833C24.2107 21.7983 23.8386 22.0338 23.5922 22.1899C23.5626 22.2086 23.5349 22.2261 23.5094 22.2426C23.2723 22.3806 22.9955 22.4496 22.6793 22.4496C22.1032 22.4496 21.8847 22.0892 21.5797 21.3683C21.286 20.6321 21.3989 19.3521 21.6941 17.3421C23.273 11.1321 22.4921 7.40662 21.2836 1.64083C21.2515 1.48775 21.2192 1.33323 21.1865 1.17719C19.1734 1.11197 17.1994 1.04242 15.2676 0.96875Z" fill="white"/>
<path fill-rule="evenodd" clip-rule="evenodd" d="M2.50065 0.388672C-0.00425148 1.75299 0.943291 4.70816 2.5321 8.20758C3.00048 8.975 3.22948 9.33046 3.44272 9.66145C3.62275 9.9409 3.79155 10.2029 4.0837 10.6807C4.37382 11.1552 4.68032 11.5494 4.95033 11.8968C5.21337 12.2351 5.44179 12.529 5.5867 12.809C5.88037 13.3612 6.25876 13.898 6.72186 14.4195C6.96979 14.684 7.07788 14.8672 7.16489 15.0146C7.24437 15.1493 7.30626 15.2542 7.44106 15.364C7.57316 15.511 7.72887 15.7251 7.89315 15.951L7.89316 15.951L7.89317 15.951C8.17747 16.3418 8.48746 16.768 8.74516 16.943C9.04596 17.3254 9.27074 17.6722 9.47543 17.988C9.68615 18.3131 9.87558 18.6053 10.1048 18.8698C10.6319 20.5558 9.10587 21.1489 8.60643 21.3052C8.22608 21.4241 7.84302 21.4896 7.43892 21.5586C7.3124 21.5802 7.18382 21.6022 7.05261 21.6263C6.97349 21.6408 6.89562 21.6558 6.81759 21.6708L6.81734 21.6709C6.35275 21.7603 5.88241 21.8508 5.10886 21.8508C4.20525 21.8508 3.36376 21.544 2.5844 20.9305C1.80503 20.3016 1.1838 19.5654 0.720703 18.7218C0.819679 19.1383 0.918863 19.5362 1.01355 19.9161C1.61004 22.3089 2.02827 23.9867 1.09344 25.1053C1.21658 25.2814 1.09427 25.1963 1.0274 25.1499C0.977973 25.1155 0.958839 25.1022 1.09152 25.2309C4.4356 25.0352 7.98761 24.854 11.7235 24.689C13.285 23.1265 14.4657 20.9028 14.0726 18.1466C13.5731 15.8993 13.4066 15.2035 11.9368 13.2461C10.6597 11.9653 9.60531 10.9939 8.31103 9.86409C8.1529 9.72604 7.9157 9.54966 7.59943 9.33492C7.29447 9.10485 7.05162 8.91313 6.8709 8.75975C6.70147 8.60637 6.5151 8.42231 6.31179 8.20758C6.10848 7.99284 5.96164 7.75511 5.87128 7.49436C5.78092 7.23361 5.73574 6.94219 5.73574 6.62009C5.73574 5.39305 6.45863 4.77953 7.9044 4.77953C8.50304 4.77953 9.12992 4.95591 9.78504 5.30869C10.4515 5.64612 11.0049 6.16762 11.4454 6.87317C12.4154 5.50131 12.9245 4.71243 12.2926 2.4328C12.2587 2.35611 12.2022 2.25642 12.1231 2.13371C12.0441 1.99567 11.852 1.7656 11.5471 1.4435C11.3369 1.20198 11.1093 0.984024 10.8644 0.789647C7.96572 0.665385 5.17418 0.531492 2.50065 0.388672Z" fill="white"/>
</svg>
