<svg width="26" height="24" viewBox="0 0 26 24" fill="none" xmlns="http://www.w3.org/2000/svg">
<path d="M5.005 18.12C6.11 17.34 7.345 16.725 8.71 16.275C10.075 15.825 11.505 15.6 13 15.6C14.495 15.6 15.925 15.825 17.29 16.275C18.655 16.725 19.89 17.34 20.995 18.12C21.7533 17.3 22.3438 16.37 22.7663 15.33C23.1888 14.29 23.4 13.18 23.4 12C23.4 9.34 22.3871 7.075 20.3612 5.205C18.3354 3.335 15.8817 2.4 13 2.4C10.1183 2.4 7.66458 3.335 5.63875 5.205C3.61292 7.075 2.6 9.34 2.6 12C2.6 13.18 2.81125 14.29 3.23375 15.33C3.65625 16.37 4.24667 17.3 5.005 18.12ZM13 13.2C11.7217 13.2 10.6437 12.795 9.76625 11.985C8.88875 11.175 8.45 10.18 8.45 9C8.45 7.82 8.88875 6.825 9.76625 6.015C10.6437 5.205 11.7217 4.8 13 4.8C14.2783 4.8 15.3562 5.205 16.2337 6.015C17.1112 6.825 17.55 7.82 17.55 9C17.55 10.18 17.1112 11.175 16.2337 11.985C15.3562 12.795 14.2783 13.2 13 13.2ZM13 24C11.2017 24 9.51167 23.685 7.93 23.055C6.34833 22.425 4.9725 21.57 3.8025 20.49C2.6325 19.41 1.70625 18.14 1.02375 16.68C0.34125 15.22 0 13.66 0 12C0 10.34 0.34125 8.78 1.02375 7.32C1.70625 5.86 2.6325 4.59 3.8025 3.51C4.9725 2.43 6.34833 1.575 7.93 0.945C9.51167 0.315 11.2017 0 13 0C14.7983 0 16.4883 0.315 18.07 0.945C19.6517 1.575 21.0275 2.43 22.1975 3.51C23.3675 4.59 24.2937 5.86 24.9762 7.32C25.6587 8.78 26 10.34 26 12C26 13.66 25.6587 15.22 24.9762 16.68C24.2937 18.14 23.3675 19.41 22.1975 20.49C21.0275 21.57 19.6517 22.425 18.07 23.055C16.4883 23.685 14.7983 24 13 24ZM13 21.6C14.1483 21.6 15.2317 21.445 16.25 21.135C17.2683 20.825 18.2 20.38 19.045 19.8C18.2 19.22 17.2683 18.775 16.25 18.465C15.2317 18.155 14.1483 18 13 18C11.8517 18 10.7683 18.155 9.75 18.465C8.73167 18.775 7.8 19.22 6.955 19.8C7.8 20.38 8.73167 20.825 9.75 21.135C10.7683 21.445 11.8517 21.6 13 21.6ZM13 10.8C13.5633 10.8 14.0292 10.63 14.3975 10.29C14.7658 9.95 14.95 9.52 14.95 9C14.95 8.48 14.7658 8.05 14.3975 7.71C14.0292 7.37 13.5633 7.2 13 7.2C12.4367 7.2 11.9708 7.37 11.6025 7.71C11.2342 8.05 11.05 8.48 11.05 9C11.05 9.52 11.2342 9.95 11.6025 10.29C11.9708 10.63 12.4367 10.8 13 10.8Z" fill="black"/>
</svg>
